<?xml version="1.0" encoding="UTF-8"?>
<svg id="Calque_1" data-name="Calque 1" xmlns="http://www.w3.org/2000/svg" viewBox="0 0 2722.5 1022.48">
  <defs>
    <style>
      .cls-1 {
        fill: #00aeef;
      }

      .cls-2 {
        fill: #0066b2;
      }

      .cls-3 {
        fill: #0066b3;
      }
    </style>
  </defs>
  <g>
    <g>
      <path class="cls-1" d="M1905.01,630.98c-7.95,0-13.73-2.24-17.33-6.73-3.57-4.5-5.37-12.08-5.37-22.74v-63h34.78v-17.75h-34.78v-38.79l-22.49,8.66v30.13h-14.67v17.75h14.67v72.03c0,11.38,3.45,20.79,10.35,28.26,6.92,7.47,15.37,11.19,25.36,11.19,11.12,0,21.33-1.18,30.66-3.56l-3.32-19.76c-6.14,2.88-12.1,4.32-17.85,4.32h-.01ZM1982.41,518.37c-15.53,0-29.03,5.67-40.4,16.96-12.71,12.63-19.08,29.41-19.08,50.34s6.19,36.17,18.59,48.09c11.16,10.8,24.69,16.22,40.67,16.22,11.06,0,21.09-1.68,30.08-4.98,7.2-2.5,12.51-5.51,16.01-8.97l-9.5-16.22c-8.58,7.44-19.33,11.17-32.19,11.17-11.3,0-20.54-3.47-27.71-10.4-8.14-7.95-12.17-19.34-12.17-34.15h91.4c1.17-4.18,1.76-8.79,1.76-13.78,0-16.18-4.99-29.18-14.91-38.96-10.28-10.2-24.45-15.32-42.55-15.32ZM1947.25,570.08c.86-9.15,4.55-16.8,11.03-22.97,6.8-6.47,15.19-9.71,25.23-9.71,10.76,0,19.22,3.29,25.5,9.94,5.67,6.07,8.5,13.67,8.5,22.74h-70.26ZM2076.52,607.97v-145.49h-22.5v149.26c0,25.5,14.58,38.25,43.74,38.25v-20.12c-6.34,0-11.43-1.94-15.38-5.88-3.9-3.89-5.86-9.24-5.86-16.02ZM2153.66,518.37c-15.56,0-29.02,5.67-40.4,16.96-12.71,12.63-19.08,29.41-19.08,50.34s6.19,36.17,18.61,48.09c11.15,10.8,24.7,16.22,40.65,16.22,11.06,0,21.09-1.68,30.1-4.98,7.18-2.5,12.51-5.51,15.98-8.97l-9.49-16.22c-8.6,7.44-19.35,11.17-32.19,11.17-11.28,0-20.53-3.47-27.7-10.4-8.14-7.95-12.2-19.34-12.2-34.15h91.4c1.17-4.18,1.8-8.79,1.8-13.78,0-16.18-5.01-29.18-14.95-38.96-10.25-10.2-24.43-15.32-42.54-15.32h0ZM2118.5,570.08c.86-9.15,4.55-16.8,11.02-22.97,6.8-6.47,15.21-9.71,25.27-9.71,10.74,0,19.21,3.29,25.46,9.94,5.69,6.07,8.53,13.67,8.53,22.74h-70.28ZM2286.73,537.4c5.65,0,11.42,1.02,17.28,3.09,5.84,2.07,9.93,4.24,12.24,6.53l11.23-15.91c-3.65-2.94-9.35-5.8-17.07-8.56-7.7-2.76-14.86-4.18-21.45-4.18-20.54,0-36.71,6.13-48.53,18.38-11.82,12.22-17.73,28.45-17.73,48.68s5.67,35.52,16.95,47.17c11.3,11.59,25.62,17.38,42.91,17.38s32.83-3.91,44.92-11.73l-8.86-19c-10.28,7.82-20.46,11.72-30.58,11.72-13.03,0-23.23-3.87-30.56-11.65-7.36-7.78-11.03-19.08-11.03-33.9s3.62-26.63,10.88-35.19c7.25-8.58,17.05-12.85,29.41-12.85v.02ZM2385.95,518.37c-17.2,0-31.1,6.04-41.63,18.07-10.55,12.04-15.82,27.86-15.82,47.46s5.05,36.3,15.19,48.2c10.09,11.9,24.18,17.88,42.27,17.88s31.71-5.92,41.97-17.71c10.28-11.78,15.4-27.93,15.4-48.38s-5-36.59-15.02-48.18c-10.05-11.55-24.16-17.35-42.35-17.35h-.01ZM2410.64,618.89c-5.94,8.53-14.16,12.81-24.69,12.81-22.46,0-33.71-15.92-33.71-47.8,0-14.72,3.06-26.28,9.18-34.63,6.13-8.39,14.29-12.59,24.53-12.59,22.42,0,33.63,15.73,33.63,47.23,0,14.78-2.98,26.45-8.93,34.99h-.01ZM2614.31,530.06c-7.2-7.8-17.35-11.69-30.47-11.69-7.27,0-14.35,1.62-21.21,4.86-6.86,3.23-11.56,7.26-14.09,12.04-7.27-11.26-19.99-16.9-38.17-16.9-13.02,0-23.9,5.69-32.59,17.03l-7.47-14.64h-14.67v126.85h22.48v-93.6c2.15-4.16,5.75-7.96,10.85-11.43,5.11-3.45,9.92-5.19,14.42-5.19,7.72,0,13.97,1.8,18.67,5.37,4.7,3.58,7.07,8.51,7.07,14.74v90.1h22.46v-93.77c1.74-4.25,4.99-8.06,9.72-11.41,4.76-3.37,9.85-5.04,15.32-5.04,17.3,0,25.97,9.97,25.97,29.96v80.25h22.49v-84.79c0-14.07-3.6-25-10.77-32.76v.02Z"/>
      <path class="cls-3" d="M1660.77,616.27c-3.17-4.18-4.75-11.3-4.75-21.42v-64.12h39v-29.25h-39v-39l-32.93,12.16v26.83h-15.81v29.25h15.81v73.79c0,14.7,3.79,25.99,11.34,33.95,7.56,7.94,18.39,11.92,32.46,11.92s25.07-1.32,32.73-3.95v-30.31c-6.86,4.28-14.25,6.4-22.19,6.4s-13.46-2.07-16.65-6.24h0ZM1780.35,621.98c-29.27,0-43.93-15.36-43.93-46.1,0-15.21,3.78-27.15,11.3-35.77,7.51-8.6,17.76-12.91,30.72-12.91s24.28,3.79,32.3,11.35l14.64-25.62c-12.57-9.59-27.41-14.34-44.47-14.34-24.72,0-44.24,7.1-58.55,21.32-14.35,14.26-21.51,32.89-21.51,55.98s6.56,41.77,19.65,54.97c13.09,13.18,30.96,19.76,53.56,19.76,10.14,0,18.92-.79,26.34-2.44,7.43-1.66,16.12-5.6,26.06-11.79l-12.59-27c-9.67,8.39-20.85,12.59-33.54,12.59h.02ZM2312.79,267.19c-44.15,8.33-88.23,21.15-130.87,36.51,192.87-48.79,261.24-22.08,276.67,4.96,10.77,18.92,9.58,47.24,3.33,76.42,1.51-4.27,3.04-8.5,4.57-12.94,26.12-76.59,25.7-138.7-153.71-104.94h.01ZM2342.28,309.66c-86.49-5.16-264.8,18.15-497.14,181.3,244.53-169.55,506.27-149.32,544.88-100.21,26.99,34.45,13.95,95.42,10.82,110.77,10.42-22.39,39.7-83.68,41.5-133.24,1.01-27.18-8.8-53.2-100.06-58.62h0ZM1528.3,588.9l-37.03-87.43h-36.1l66.14,146.25h13.97l66.13-146.25h-36.09l-37.03,87.43h.01Z"/>
    </g>
    <g>
      <path class="cls-3" d="M1868.91,710.23l10.45,29.92c1.76,4.85,3.19,9.24,4.29,13.65h.33c1.21-4.4,2.75-8.8,4.51-13.65l10.34-29.92h10.12l-20.91,53.25h-9.24l-20.25-53.25h10.36Z"/>
      <path class="cls-3" d="M1971.24,698.34c1.21,2.2,1.98,4.95,1.98,7.92,0,5.5-3.96,9.02-9.35,9.24l-1.21.1v33.34c0,5.5.11,10.34.44,14.52h-8.58l-.55-8.69h-.22c-2.53,4.29-8.14,9.9-17.6,9.9-8.36,0-18.37-4.62-18.37-23.33v-31.14h9.68v29.49c0,10.12,3.08,16.94,11.88,16.94,6.49,0,11-4.51,12.76-8.8.55-1.43.88-3.2.88-4.95v-32.68h7.59c3.85,0,5.17-1.54,5.17-4.3,0-2.09-.77-4.4-1.87-6.38l7.37-1.21v.03Z"/>
      <path class="cls-3" d="M2029.77,701.21c1.1,2.31,1.87,4.95,1.87,8.03,0,5.94-3.52,9.9-10.23,9.57,3.52,4.4,5.5,10.45,5.5,17.6,0,19.69-13.64,28.28-26.52,28.28-14.41,0-25.53-10.56-25.53-27.4,0-17.82,11.66-28.28,26.41-28.28,3.3,0,6.16.55,9.13,1.54,2.64.77,5.94,2.86,9.35,2.86,2.86,0,4.4-1.54,4.4-4.4,0-2.42-.77-4.62-1.76-6.49l7.37-1.32h.01ZM1984.66,736.96c0,11.66,6.71,20.47,16.17,20.47s16.18-8.69,16.18-20.69c0-9.02-4.51-20.47-15.95-20.47s-16.4,10.57-16.4,20.69h0Z"/>
      <path class="cls-3" d="M2039.57,724.64c0-5.5-.11-10.02-.44-14.41h8.58l.55,8.8h.22c2.64-5.06,8.8-10.01,17.6-10.01,7.37,0,18.82,4.4,18.82,22.67v31.8h-9.68v-30.7c0-8.58-3.19-15.73-12.32-15.73-6.38,0-11.33,4.51-12.98,9.9-.44,1.21-.66,2.86-.66,4.52v32.01h-9.68v-38.84h0Z"/>
      <path class="cls-3" d="M2135.62,697.46v12.77h13.86v7.37h-13.86v28.71c0,6.61,1.87,10.34,7.26,10.34,2.64,0,4.18-.22,5.61-.66l.44,7.27c-1.87.77-4.84,1.43-8.58,1.43-4.51,0-8.14-1.54-10.45-4.18-2.75-2.86-3.74-7.59-3.74-13.86v-29.05h-8.25v-7.37h8.25v-9.79l9.47-2.97h-.01Z"/>
      <path class="cls-3" d="M2210.77,701.21c1.1,2.31,1.87,4.95,1.87,8.03,0,5.94-3.52,9.9-10.23,9.57,3.52,4.4,5.5,10.45,5.5,17.6,0,19.69-13.64,28.28-26.51,28.28-14.42,0-25.53-10.56-25.53-27.4,0-17.82,11.66-28.28,26.41-28.28,3.3,0,6.16.55,9.13,1.54,2.64.77,5.94,2.86,9.36,2.86,2.86,0,4.4-1.54,4.4-4.4,0-2.42-.77-4.62-1.76-6.49l7.37-1.32h-.01ZM2165.66,736.96c0,11.66,6.71,20.47,16.17,20.47s16.17-8.69,16.17-20.69c0-9.02-4.51-20.47-15.96-20.47s-16.39,10.57-16.39,20.69h0ZM2197.45,687.23l-13.42,15.74h-6.93l9.68-15.74h10.67Z"/>
      <path class="cls-3" d="M2231.34,695.26c.11,3.3-2.31,5.94-6.16,5.94-3.41,0-5.83-2.65-5.83-5.94s2.53-6.05,6.05-6.05,5.94,2.64,5.94,6.05ZM2220.56,763.48v-53.25h9.68v53.25h-9.68Z"/>
      <path class="cls-3" d="M2281.3,697.46v12.77h13.86v7.37h-13.86v28.71c0,6.61,1.87,10.34,7.26,10.34,2.64,0,4.19-.22,5.62-.66l.44,7.27c-1.87.77-4.84,1.43-8.58,1.43-4.51,0-8.14-1.54-10.45-4.18-2.75-2.86-3.74-7.59-3.74-13.86v-29.05h-8.25v-7.37h8.25v-9.79l9.47-2.97h-.02Z"/>
      <path class="cls-3" d="M2343.46,750.72c0,4.62.22,9.13.88,12.76h-8.8l-.77-6.71h-.33c-2.97,4.18-8.69,7.92-16.28,7.92-10.78,0-16.29-7.59-16.29-15.3,0-12.87,11.44-19.91,32.02-19.8v-1.1c0-4.4-1.21-12.33-12.1-12.33-4.95,0-10.12,1.55-13.86,3.96l-2.2-6.38c4.4-2.86,10.78-4.73,17.49-4.73,16.29,0,20.25,11.11,20.25,21.79v19.92h-.01ZM2327.18,687.23l9.46,15.74h-7.37l-5.61-10.34h-.22l-5.61,10.34h-7.04l9.24-15.74h7.15ZM2334.11,736.3c-10.57-.22-22.56,1.65-22.56,11.99,0,6.27,4.18,9.25,9.13,9.25,6.93,0,11.33-4.41,12.87-8.92.33-.99.55-2.09.55-3.08v-9.24h.01ZM2336.75,678.21l7.04,14.53h-5.61l-10.23-14.53h8.8,0Z"/>
      <path class="cls-3" d="M2359.09,724.64c0-5.5-.11-10.02-.44-14.41h8.48l.44,8.58h.33c2.97-5.06,7.92-9.79,16.72-9.79,7.26,0,12.76,4.4,15.07,10.67h.22c1.65-2.97,3.74-5.29,5.94-6.94,3.19-2.42,6.71-3.74,11.77-3.74,7.04,0,17.5,4.62,17.5,23.1v31.36h-9.46v-30.15c0-10.23-3.74-16.39-11.56-16.39-5.5,0-9.79,4.07-11.44,8.8-.44,1.32-.77,3.08-.77,4.84v32.9h-9.46v-31.91c0-8.47-3.74-14.63-11.11-14.63-6.05,0-10.46,4.84-11.99,9.68-.55,1.43-.77,3.08-.77,4.73v32.13h-9.46v-38.84h0Z"/>
      <path class="cls-3" d="M2512.13,761.5c-2.53,1.32-8.14,3.19-15.3,3.19-16.06,0-26.52-11.01-26.52-27.29s11.22-28.27,28.61-28.27c5.72,0,10.78,1.43,13.42,2.75l-2.2,7.48c-2.31-1.32-5.94-2.53-11.22-2.53-12.21,0-18.82,9.02-18.82,20.14,0,12.32,7.92,19.92,18.49,19.92,5.5,0,9.13-1.43,11.88-2.65l1.65,7.27h0Z"/>
      <path class="cls-3" d="M2560.88,750.72c0,4.62.22,9.13.88,12.76h-8.8l-.77-6.71h-.33c-2.97,4.18-8.69,7.92-16.29,7.92-10.78,0-16.29-7.59-16.29-15.3,0-12.87,11.44-19.91,32.02-19.8v-1.1c0-4.4-1.21-12.33-12.11-12.33-4.95,0-10.12,1.55-13.86,3.96l-2.2-6.38c4.4-2.86,10.78-4.73,17.49-4.73,16.29,0,20.25,11.11,20.25,21.79v19.92h.01ZM2551.53,736.3c-10.56-.22-22.56,1.65-22.56,11.99,0,6.27,4.18,9.25,9.13,9.25,6.93,0,11.34-4.41,12.87-8.92.33-.99.55-2.09.55-3.08v-9.24h.01Z"/>
      <path class="cls-3" d="M2624.69,736.41c0,19.69-13.64,28.28-26.51,28.28-14.41,0-25.53-10.56-25.53-27.4,0-17.82,11.67-28.28,26.41-28.28s25.64,11.11,25.64,27.4h0ZM2582.44,736.96c0,11.66,6.71,20.47,16.18,20.47s16.17-8.69,16.17-20.69c0-9.02-4.51-20.47-15.95-20.47s-16.4,10.57-16.4,20.69Z"/>
    </g>
  </g>
  <g>
    <path class="cls-2" d="M349.45,539.34c1.32,7.37,1.74,15.55,1.74,23.29,0,69.02-55.08,125.14-123.69,126.85,0,0,37.81-16.94,78.9-71.05,40.13-52.78,43.06-79.08,43.06-79.08Z"/>
    <path class="cls-2" d="M350,432.32c13.15,10.57,13.12,32.5-4.06,77.95-21.71,57.41-73.08,113.2-98.88,139.57-28.97,29.63-85.11,69.21-108.16,55.24-21.31-12.9-6.18-51.56-4.85-55.62,11.68-35.04,42.85-80.4,47.12-110.89,4.63-33.14-6.23-41.49-15.12-46.15-5.47-2.85-32.23-11.04-53.9,33.13-21.74,44.21-2.15,92.3-2.15,92.3-8.07-16.71-12.6-35.45-12.6-55.22,0-70.08,56.81-126.91,126.91-126.91,21.83,0,42.37,5.54,60.34,15.25,0,0,46.77-33.57,65.35-18.65ZM337.2,445.31c-11.85-12.92-44.73,10.28-44.73,10.28,15.04,9.6,27.93,22.29,37.73,37.16,0,0,18.27-35.2,7-47.43Z"/>
    <g>
      <path class="cls-2" d="M515.44,637.78l-72.24-137.27h37.53l51.77,96.51h.46l48.6-96.51h37.77l-69.96,137.27h-33.92Z"/>
      <path class="cls-2" d="M713.86,500.51l88.48,92.1h.45l-.45-92.1h34.43v137.27h-36.66l-91.42-93.87h-.47v93.87h-34.44v-137.27h40.09Z"/>
      <path class="cls-2" d="M1019.13,500.51c10.43,0,19.28,1.23,26.56,3.74,7.31,2.49,13.28,5.79,17.88,9.92,4.58,4.05,7.9,8.77,10,14.03,2.1,5.25,3.2,10.72,3.2,16.37s-1.1,10.95-3.2,16.28c-2.1,5.31-5.42,10.02-9.98,14.14-4.58,4.09-10.53,7.38-17.84,9.92-7.28,2.47-16.13,3.74-26.5,3.74h-58.69v49.12h-36.73v-137.27h95.32ZM1009.2,565.21c4.2,0,8.22-.23,12.16-.75,3.85-.52,7.27-1.51,10.22-2.98,2.95-1.5,5.31-3.58,7.11-6.28,1.79-2.66,2.68-6.24,2.68-10.63s-.89-7.91-2.68-10.62c-1.8-2.71-4.15-4.76-7.11-6.28-2.95-1.48-6.37-2.49-10.22-2.99-3.94-.52-7.96-.78-12.16-.78h-48.66v41.32h48.66Z"/>
      <path class="cls-2" d="M1113.96,529.42v-28.9h153.37v28.9h-59.41v108.36h-36.72v-108.36h-57.25Z"/>
    </g>
  </g>
</svg>